# xmcd
#
# Track frame offsets: 
#        150
#        13377
#        27430
#        42759
#        57464
#        70159
#        86499
#        101842
#        120861
#        133473
#        152419
#
# Disc length: 2243 seconds
#
# Revision: 0
# Processed by: cddbd v1.5.2PL0 Copyright (c) Steve Scherf et al.
# Submitted via: ExactAudioCopy v0.90b4
#
DISCID=9208c10b
DTITLE=Stephanie Iverson - No Fear
DYEAR=1997
DGENRE=Country
TTITLE0=Brand New Opera
TTITLE1=Real American Idols
TTITLE2=Panties In A Wad
TTITLE3=Places We Go Through
TTITLE4=Feel My Way Through This
TTITLE5=Dashboard Madonna
TTITLE6=The Crush
TTITLE7=All That I Have
TTITLE8=I'd Love To See You Try
TTITLE9=Little Girl's Gotta Learn
TTITLE10=No Fear
EXTD=
EXTT0=
EXTT1=
EXTT2=
EXTT3=
EXTT4=
EXTT5=
EXTT6=
EXTT7=
EXTT8=
EXTT9=
EXTT10=
PLAYORDER=
